<?xml version="1.0" encoding="UTF-8" standalone="no"?>
<!DOCTYPE svg PUBLIC "-//W3C//DTD SVG 1.1//EN"
 "http://www.w3.org/Graphics/SVG/1.1/DTD/svg11.dtd">
<!-- Generated by graphviz version 2.43.0 (0)
 -->
<!-- Title: UML Pages: 1 -->
<svg width="1167pt" height="955pt"
 viewBox="0.00 0.00 1167.00 954.50" xmlns="http://www.w3.org/2000/svg" xmlns:xlink="http://www.w3.org/1999/xlink">
<g id="graph0" class="graph" transform="scale(1 1) rotate(0) translate(4 950.5)">
<title>UML</title>
<polygon fill="white" stroke="transparent" points="-4,4 -4,-950.5 1163,-950.5 1163,4 -4,4"/>
<g id="clust1" class="cluster">
<title>cluster_enemy</title>
<path fill="white" stroke="#888888" stroke-dasharray="5,2" d="M616,-560C616,-560 1139,-560 1139,-560 1145,-560 1151,-566 1151,-572 1151,-572 1151,-821.5 1151,-821.5 1151,-827.5 1145,-833.5 1139,-833.5 1139,-833.5 616,-833.5 616,-833.5 610,-833.5 604,-827.5 604,-821.5 604,-821.5 604,-572 604,-572 604,-566 610,-560 616,-560"/>
<text text-anchor="start" x="612" y="-568.2" font-family="DejaVu Sans" font-weight="bold" font-size="11.00">Regular enemies: inheritance</text>
</g>
<g id="clust2" class="cluster">
<title>cluster_ares</title>
<path fill="white" stroke="#888888" stroke-dasharray="5,2" d="M20,-8C20,-8 312,-8 312,-8 318,-8 324,-14 324,-20 324,-20 324,-782 324,-782 324,-788 318,-794 312,-794 312,-794 20,-794 20,-794 14,-794 8,-788 8,-782 8,-782 8,-20 8,-20 8,-14 14,-8 20,-8"/>
<text text-anchor="start" x="16" y="-16.2" font-family="DejaVu Sans" font-weight="bold" font-size="11.00">ARES (DROID&#45;7): composition + attack hierarchy</text>
</g>
<g id="clust3" class="cluster">
<title>cluster_deimos</title>
<path fill="white" stroke="#888888" stroke-dasharray="5,2" d="M344,-19C344,-19 584,-19 584,-19 590,-19 596,-25 596,-31 596,-31 596,-782 596,-782 596,-788 590,-794 584,-794 584,-794 344,-794 344,-794 338,-794 332,-788 332,-782 332,-782 332,-31 332,-31 332,-25 338,-19 344,-19"/>
<text text-anchor="start" x="340" y="-27.2" font-family="DejaVu Sans" font-weight="bold" font-size="11.00">Deimos: composition + attack hierarchy</text>
</g>
<!-- IEnemy -->
<g id="node1" class="node">
<title>IEnemy</title>
<polygon fill="#dcebfa" stroke="transparent" points="675,-862.5 675,-946.5 829,-946.5 829,-862.5 675,-862.5"/>
<polyline fill="none" stroke="#2b5c8a" points="676,-915.5 828,-915.5 "/>
<text text-anchor="start" x="724" y="-933.5" font-family="DejaVu Sans" font-style="italic" font-size="10.00">«interface»</text>
<text text-anchor="start" x="731" y="-923.5" font-family="DejaVu Sans" font-weight="bold" font-size="10.00">IEnemy</text>
<text text-anchor="start" x="680" y="-903.5" font-family="DejaVu Sans" font-size="10.00">+ Activate(target: Transform)</text>
<text text-anchor="start" x="680" y="-892.5" font-family="DejaVu Sans" font-size="10.00">+ Deactivate()</text>
<text text-anchor="start" x="680" y="-881.5" font-family="DejaVu Sans" font-size="10.00">+ Die()</text>
<text text-anchor="start" x="680" y="-870.5" font-family="DejaVu Sans" font-size="10.00">+ IsDead: bool</text>
<polygon fill="none" stroke="#2b5c8a" points="675,-862.5 675,-946.5 829,-946.5 829,-862.5 675,-862.5"/>
</g>
<!-- IDamageable -->
<g id="node2" class="node">
<title>IDamageable</title>
<polygon fill="#dcebfa" stroke="transparent" points="385.5,-873.5 385.5,-935.5 542.5,-935.5 542.5,-873.5 385.5,-873.5"/>
<polyline fill="none" stroke="#2b5c8a" points="387,-904.5 542,-904.5 "/>
<text text-anchor="start" x="436.5" y="-922.5" font-family="DejaVu Sans" font-style="italic" font-size="10.00">«interface»</text>
<text text-anchor="start" x="426.5" y="-912.5" font-family="DejaVu Sans" font-weight="bold" font-size="10.00">IDamageable</text>
<text text-anchor="start" x="391" y="-892.5" font-family="DejaVu Sans" font-size="10.00">+ TakeDamage(amount: float,</text>
<text text-anchor="start" x="391" y="-881.5" font-family="DejaVu Sans" font-size="10.00">  hitPoint: Vector3)</text>
<polygon fill="none" stroke="#2b5c8a" points="385.5,-873.5 385.5,-935.5 542.5,-935.5 542.5,-873.5 385.5,-873.5"/>
</g>
<!-- EnemyBase -->
<g id="node3" class="node">
<title>EnemyBase</title>
<polygon fill="#fff1cc" stroke="transparent" points="664.5,-689.5 664.5,-821.5 839.5,-821.5 839.5,-689.5 664.5,-689.5"/>
<polyline fill="none" stroke="#8a6a12" points="666,-790.5 839,-790.5 "/>
<text text-anchor="start" x="726.5" y="-808.5" font-family="DejaVu Sans" font-style="italic" font-size="10.00">«abstract»</text>
<text text-anchor="start" x="720" y="-798.5" font-family="DejaVu Sans" font-weight="bold" font-size="10.00">EnemyBase</text>
<text text-anchor="start" x="670" y="-778.5" font-family="DejaVu Sans" font-size="10.00">&#45; maxHealth, stagger settings</text>
<text text-anchor="start" x="670" y="-767.5" font-family="DejaVu Sans" font-size="10.00">&#45; NavMeshAgent reference</text>
<polyline fill="none" stroke="#8a6a12" points="839,-760.5 666,-760.5 "/>
<text text-anchor="start" x="671" y="-748.5" font-family="DejaVu Sans" font-size="10.00">+ TakeDamage(amount, hitPoint)</text>
<text text-anchor="start" x="671" y="-738.5" font-family="DejaVu Sans" font-size="10.00">+ ResetForRetry(pos, rot)</text>
<text text-anchor="start" x="671" y="-728.5" font-family="DejaVu Sans" font-size="10.00"># </text>
<text text-anchor="start" x="683" y="-728.5" font-family="DejaVu Sans" font-style="italic" font-size="10.00">OnActivate()</text>
<text text-anchor="start" x="671" y="-718.5" font-family="DejaVu Sans" font-size="10.00"># </text>
<text text-anchor="start" x="683" y="-718.5" font-family="DejaVu Sans" font-style="italic" font-size="10.00">OnDeactivate()</text>
<text text-anchor="start" x="671" y="-708.5" font-family="DejaVu Sans" font-size="10.00"># </text>
<text text-anchor="start" x="683" y="-708.5" font-family="DejaVu Sans" font-style="italic" font-size="10.00">OnDie()</text>
<text text-anchor="start" x="671" y="-698.5" font-family="DejaVu Sans" font-size="10.00"># </text>
<text text-anchor="start" x="683" y="-698.5" font-family="DejaVu Sans" font-style="italic" font-size="10.00">OnHit(amount, hitPoint)</text>
<polygon fill="none" stroke="#8a6a12" points="664.5,-689.5 664.5,-821.5 839.5,-821.5 839.5,-689.5 664.5,-689.5"/>
</g>
<!-- EnemyBase&#45;&gt;IEnemy -->
<g id="edge6" class="edge">
<title>EnemyBase&#45;&gt;IEnemy</title>
<path fill="none" stroke="#333333" stroke-dasharray="5,2" d="M752,-821.83C752,-832.4 752,-843.2 752,-853.33"/>
<polygon fill="none" stroke="#333333" points="748.85,-853.43 752,-862.43 755.15,-853.43 748.85,-853.43"/>
</g>
<!-- EnemyBase&#45;&gt;IDamageable -->
<g id="edge7" class="edge">
<title>EnemyBase&#45;&gt;IDamageable</title>
<path fill="none" stroke="#333333" stroke-dasharray="5,2" d="M664.39,-801.56C643.93,-812.06 622.21,-823.19 602,-833.5 579.09,-845.19 554.01,-857.93 531.6,-869.29"/>
<polygon fill="none" stroke="#333333" points="530.07,-866.54 523.47,-873.41 532.92,-872.15 530.07,-866.54"/>
</g>
<!-- EnemyChaser -->
<g id="node4" class="node">
<title>EnemyChaser</title>
<polygon fill="white" stroke="transparent" points="1007.5,-592 1007.5,-634 1138.5,-634 1138.5,-592 1007.5,-592"/>
<text text-anchor="start" x="1035" y="-622" font-family="DejaVu Sans" font-weight="bold" font-size="10.00">EnemyChaser</text>
<polyline fill="none" stroke="#333333" points="1138,-614 1009,-614 "/>
<text text-anchor="start" x="1014" y="-601" font-family="DejaVu Sans" font-size="10.00">Chase and Attack states</text>
<polygon fill="none" stroke="#333333" points="1007.5,-592 1007.5,-634 1138.5,-634 1138.5,-592 1007.5,-592"/>
</g>
<!-- EnemyChaser&#45;&gt;EnemyBase -->
<g id="edge1" class="edge">
<title>EnemyChaser&#45;&gt;EnemyBase</title>
<path fill="none" stroke="#333333" d="M1027.01,-634.13C980.48,-654.49 907.17,-686.58 847.94,-712.51"/>
<polygon fill="none" stroke="#333333" points="846.66,-709.63 839.68,-716.12 849.19,-715.4 846.66,-709.63"/>
</g>
<!-- EnemyBrute -->
<g id="node5" class="node">
<title>EnemyBrute</title>
<polygon fill="white" stroke="transparent" points="807.5,-592 807.5,-634 982.5,-634 982.5,-592 807.5,-592"/>
<text text-anchor="start" x="861" y="-622" font-family="DejaVu Sans" font-weight="bold" font-size="10.00">EnemyBrute</text>
<polyline fill="none" stroke="#333333" points="982,-614 809,-614 "/>
<text text-anchor="start" x="814" y="-601" font-family="DejaVu Sans" font-size="10.00">wake&#45;up roar, swipe combo, grab</text>
<polygon fill="none" stroke="#333333" points="807.5,-592 807.5,-634 982.5,-634 982.5,-592 807.5,-592"/>
</g>
<!-- EnemyBrute&#45;&gt;EnemyBase -->
<g id="edge2" class="edge">
<title>EnemyBrute&#45;&gt;EnemyBase</title>
<path fill="none" stroke="#333333" d="M874.51,-634.13C861.31,-647.11 843.26,-664.84 825.07,-682.71"/>
<polygon fill="none" stroke="#333333" points="822.58,-680.73 818.37,-689.29 827,-685.23 822.58,-680.73"/>
</g>
<!-- EnemyRusher -->
<g id="node6" class="node">
<title>EnemyRusher</title>
<polygon fill="white" stroke="transparent" points="616,-592 616,-634 782,-634 782,-592 616,-592"/>
<text text-anchor="start" x="660.5" y="-622" font-family="DejaVu Sans" font-weight="bold" font-size="10.00">EnemyRusher</text>
<polyline fill="none" stroke="#333333" points="781,-614 617,-614 "/>
<text text-anchor="start" x="622" y="-601" font-family="DejaVu Sans" font-size="10.00">Sprint / Walk / Maul by distance</text>
<polygon fill="none" stroke="#333333" points="616,-592 616,-634 782,-634 782,-592 616,-592"/>
</g>
<!-- EnemyRusher&#45;&gt;EnemyBase -->
<g id="edge3" class="edge">
<title>EnemyRusher&#45;&gt;EnemyBase</title>
<path fill="none" stroke="#333333" d="M706.59,-634.13C711.32,-646.65 717.71,-663.6 724.21,-680.83"/>
<polygon fill="none" stroke="#333333" points="721.28,-681.98 727.4,-689.29 727.17,-679.76 721.28,-681.98"/>
</g>
<!-- BossHealth -->
<g id="node7" class="node">
<title>BossHealth</title>
<polygon fill="#e2f3e2" stroke="transparent" points="134.5,-729 134.5,-782 307.5,-782 307.5,-729 134.5,-729"/>
<text text-anchor="start" x="189.5" y="-769.5" font-family="DejaVu Sans" font-weight="bold" font-size="10.00">BossHealth</text>
<polyline fill="none" stroke="#2f6b2f" points="307,-761.5 136,-761.5 "/>
<text text-anchor="start" x="141" y="-748.5" font-family="DejaVu Sans" font-size="10.00">static events: OnHealthChanged,</text>
<text text-anchor="start" x="141" y="-737.5" font-family="DejaVu Sans" font-size="10.00">OnPhaseTwo, OnBossDeath</text>
<polygon fill="none" stroke="#2f6b2f" points="134.5,-729 134.5,-782 307.5,-782 307.5,-729 134.5,-729"/>
</g>
<!-- BossHealth&#45;&gt;IDamageable -->
<g id="edge8" class="edge">
<title>BossHealth&#45;&gt;IDamageable</title>
<path fill="none" stroke="#333333" stroke-dasharray="5,2" d="M253.15,-782.2C273.46,-797.89 300.58,-817.88 326,-833.5 346.6,-846.16 369.77,-858.57 391.16,-869.34"/>
<polygon fill="none" stroke="#333333" points="389.8,-872.18 399.26,-873.39 392.62,-866.55 389.8,-872.18"/>
</g>
<!-- BossStateMachine -->
<g id="node8" class="node">
<title>BossStateMachine</title>
<polygon fill="#e2f3e2" stroke="transparent" points="153,-586.5 153,-639.5 283,-639.5 283,-586.5 153,-586.5"/>
<text text-anchor="start" x="166.5" y="-627" font-family="DejaVu Sans" font-weight="bold" font-size="10.00">BossStateMachine</text>
<polyline fill="none" stroke="#2f6b2f" points="282,-619 154,-619 "/>
<text text-anchor="start" x="159" y="-606" font-family="DejaVu Sans" font-size="10.00">Idle, Combat, Attacking,</text>
<text text-anchor="start" x="159" y="-595" font-family="DejaVu Sans" font-size="10.00">PhaseTransition, Dead</text>
<polygon fill="none" stroke="#2f6b2f" points="153,-586.5 153,-639.5 283,-639.5 283,-586.5 153,-586.5"/>
</g>
<!-- BossStateMachine&#45;&gt;BossHealth -->
<g id="edge11" class="edge">
<title>BossStateMachine&#45;&gt;BossHealth</title>
<path fill="none" stroke="#2f6b2f" d="M218.55,-639.77C219.03,-662.25 219.73,-695.05 220.26,-719.83"/>
<polygon fill="#2f6b2f" stroke="#2f6b2f" points="220.45,-728.89 216.21,-719.98 220.36,-724.39 220.26,-719.9 220.26,-719.9 220.26,-719.9 220.36,-724.39 224.31,-719.81 220.45,-728.89 220.45,-728.89"/>
<text text-anchor="middle" x="245.5" y="-662.3" font-family="DejaVu Sans" font-size="9.00" fill="#2f6b2f"> «requires»</text>
</g>
<!-- BossAttackRegistry -->
<g id="node9" class="node">
<title>BossAttackRegistry</title>
<polygon fill="#e2f3e2" stroke="transparent" points="143,-427 143,-469 291,-469 291,-427 143,-427"/>
<text text-anchor="start" x="161.5" y="-457" font-family="DejaVu Sans" font-weight="bold" font-size="10.00">BossAttackRegistry</text>
<polyline fill="none" stroke="#2f6b2f" points="290,-449 144,-449 "/>
<text text-anchor="start" x="149" y="-436" font-family="DejaVu Sans" font-size="10.00">&#45; attacks: BossAttackBase[]</text>
<polygon fill="none" stroke="#2f6b2f" points="143,-427 143,-469 291,-469 291,-427 143,-427"/>
</g>
<!-- BossAttackRegistry&#45;&gt;BossStateMachine -->
<g id="edge10" class="edge">
<title>BossAttackRegistry&#45;&gt;BossStateMachine</title>
<path fill="none" stroke="#2f6b2f" d="M217.12,-469.31C217.29,-496.27 217.58,-544.26 217.79,-577.08"/>
<polygon fill="#2f6b2f" stroke="#2f6b2f" points="217.84,-586.32 213.74,-577.35 217.81,-581.82 217.79,-577.32 217.79,-577.32 217.79,-577.32 217.81,-581.82 221.84,-577.3 217.84,-586.32 217.84,-586.32"/>
<text text-anchor="middle" x="243.5" y="-544.8" font-family="DejaVu Sans" font-size="9.00" fill="#2f6b2f"> «requires»</text>
</g>
<!-- BossAttackBase -->
<g id="node10" class="node">
<title>BossAttackBase</title>
<polygon fill="#fff1cc" stroke="transparent" points="120,-200 120,-333 312,-333 312,-200 120,-200"/>
<polyline fill="none" stroke="#8a6a12" points="121,-301.5 311,-301.5 "/>
<text text-anchor="start" x="190" y="-319.5" font-family="DejaVu Sans" font-style="italic" font-size="10.00">«abstract»</text>
<text text-anchor="start" x="171" y="-309.5" font-family="DejaVu Sans" font-weight="bold" font-size="10.00">BossAttackBase</text>
<text text-anchor="start" x="125" y="-289.5" font-family="DejaVu Sans" font-size="10.00">+ maxRange, cooldown,</text>
<text text-anchor="start" x="125" y="-278.5" font-family="DejaVu Sans" font-size="10.00">  attackTimeoutDuration: float</text>
<text text-anchor="start" x="125" y="-267.5" font-family="DejaVu Sans" font-size="10.00">+ event OnAttackEnded</text>
<polyline fill="none" stroke="#8a6a12" points="311,-260.5 121,-260.5 "/>
<text text-anchor="start" x="126" y="-248.5" font-family="DejaVu Sans" font-size="10.00">+ Execute()</text>
<text text-anchor="start" x="126" y="-238.5" font-family="DejaVu Sans" font-size="10.00"># </text>
<text text-anchor="start" x="138" y="-238.5" font-family="DejaVu Sans" font-style="italic" font-size="10.00">PerformAttack()</text>
<text text-anchor="start" x="126" y="-228.5" font-family="DejaVu Sans" font-size="10.00">+ OnHitboxOpen() / OnHitboxClose()</text>
<text text-anchor="start" x="126" y="-218.5" font-family="DejaVu Sans" font-size="10.00">+ OnAttackAnimEnd()</text>
<text text-anchor="start" x="126" y="-208.5" font-family="DejaVu Sans" font-size="10.00">+ CancelAttack()</text>
<polygon fill="none" stroke="#8a6a12" points="120,-200 120,-333 312,-333 312,-200 120,-200"/>
</g>
<!-- BossAttackBase&#45;&gt;BossAttackRegistry -->
<g id="edge14" class="edge">
<title>BossAttackBase&#45;&gt;BossAttackRegistry</title>
<path fill="none" stroke="#333333" d="M216.37,-333.07C216.52,-361.38 216.7,-393.16 216.83,-415.95"/>
<polygon fill="none" stroke="#333333" points="216.83,-416.18 220.46,-421.56 216.89,-426.98 213.26,-421.6 216.83,-416.18"/>
<text text-anchor="middle" x="209.68" y="-345.4" font-family="DejaVu Sans" font-size="9.00" fill="#333333">1..*</text>
</g>
<!-- AresAttacks -->
<g id="node11" class="node">
<title>AresAttacks</title>
<polygon fill="white" stroke="transparent" points="160.5,-40 160.5,-159 271.5,-159 271.5,-40 160.5,-40"/>
<text text-anchor="start" x="171" y="-146.5" font-family="DejaVu Sans" font-style="italic" font-size="10.00">8 concrete attacks</text>
<polyline fill="none" stroke="#333333" points="271,-138.5 162,-138.5 "/>
<text text-anchor="start" x="167" y="-125.5" font-family="DejaVu Sans" font-size="10.00">SlashAttack</text>
<text text-anchor="start" x="167" y="-114.5" font-family="DejaVu Sans" font-size="10.00">StabAttack</text>
<text text-anchor="start" x="167" y="-103.5" font-family="DejaVu Sans" font-size="10.00">BladeSweepAttack</text>
<text text-anchor="start" x="167" y="-92.5" font-family="DejaVu Sans" font-size="10.00">LeftPunchAttack</text>
<text text-anchor="start" x="167" y="-81.5" font-family="DejaVu Sans" font-size="10.00">PounceAttack</text>
<text text-anchor="start" x="167" y="-70.5" font-family="DejaVu Sans" font-size="10.00">GroundSlamAttack</text>
<text text-anchor="start" x="167" y="-59.5" font-family="DejaVu Sans" font-size="10.00">SprintChargeAttack</text>
<text text-anchor="start" x="167" y="-48.5" font-family="DejaVu Sans" font-size="10.00">CoreOverloadAttack</text>
<polygon fill="none" stroke="#333333" points="160.5,-40 160.5,-159 271.5,-159 271.5,-40 160.5,-40"/>
</g>
<!-- AresAttacks&#45;&gt;BossAttackBase -->
<g id="edge4" class="edge">
<title>AresAttacks&#45;&gt;BossAttackBase</title>
<path fill="none" stroke="#333333" d="M216,-159.14C216,-169.31 216,-180.01 216,-190.55"/>
<polygon fill="none" stroke="#333333" points="212.85,-190.75 216,-199.75 219.15,-190.75 212.85,-190.75"/>
</g>
<!-- DeimosHealth -->
<g id="node12" class="node">
<title>DeimosHealth</title>
<polygon fill="#e2f3e2" stroke="transparent" points="377.5,-729 377.5,-782 550.5,-782 550.5,-729 377.5,-729"/>
<text text-anchor="start" x="425" y="-769.5" font-family="DejaVu Sans" font-weight="bold" font-size="10.00">DeimosHealth</text>
<polyline fill="none" stroke="#2f6b2f" points="550,-761.5 379,-761.5 "/>
<text text-anchor="start" x="384" y="-748.5" font-family="DejaVu Sans" font-size="10.00">static events: OnHealthChanged,</text>
<text text-anchor="start" x="384" y="-737.5" font-family="DejaVu Sans" font-size="10.00">OnPhaseTwo, OnStaggerStart</text>
<polygon fill="none" stroke="#2f6b2f" points="377.5,-729 377.5,-782 550.5,-782 550.5,-729 377.5,-729"/>
</g>
<!-- DeimosHealth&#45;&gt;IDamageable -->
<g id="edge9" class="edge">
<title>DeimosHealth&#45;&gt;IDamageable</title>
<path fill="none" stroke="#333333" stroke-dasharray="5,2" d="M464,-782.11C464,-804.74 464,-838.12 464,-864.15"/>
<polygon fill="none" stroke="#333333" points="460.85,-864.37 464,-873.37 467.15,-864.37 460.85,-864.37"/>
</g>
<!-- DeimosStateMachine -->
<g id="node13" class="node">
<title>DeimosStateMachine</title>
<polygon fill="#e2f3e2" stroke="transparent" points="399.5,-592 399.5,-634 528.5,-634 528.5,-592 399.5,-592"/>
<text text-anchor="start" x="405" y="-622" font-family="DejaVu Sans" font-weight="bold" font-size="10.00">DeimosStateMachine</text>
<polyline fill="none" stroke="#2f6b2f" points="528,-614 401,-614 "/>
<text text-anchor="start" x="406" y="-601" font-family="DejaVu Sans" font-size="10.00">heuristic state machine</text>
<polygon fill="none" stroke="#2f6b2f" points="399.5,-592 399.5,-634 528.5,-634 528.5,-592 399.5,-592"/>
</g>
<!-- DeimosStateMachine&#45;&gt;DeimosHealth -->
<g id="edge13" class="edge">
<title>DeimosStateMachine&#45;&gt;DeimosHealth</title>
<path fill="none" stroke="#2f6b2f" d="M464,-634.13C464,-656.39 464,-692.67 464,-719.59"/>
<polygon fill="#2f6b2f" stroke="#2f6b2f" points="464,-728.68 459.95,-719.68 464,-724.18 464,-719.68 464,-719.68 464,-719.68 464,-724.18 468.05,-719.68 464,-728.68 464,-728.68"/>
<text text-anchor="middle" x="489.5" y="-662.3" font-family="DejaVu Sans" font-size="9.00" fill="#2f6b2f"> «requires»</text>
</g>
<!-- DeimosAttackRegistry -->
<g id="node14" class="node">
<title>DeimosAttackRegistry</title>
<polygon fill="#e2f3e2" stroke="transparent" points="383,-427 383,-469 545,-469 545,-427 383,-427"/>
<text text-anchor="start" x="400.5" y="-457" font-family="DejaVu Sans" font-weight="bold" font-size="10.00">DeimosAttackRegistry</text>
<polyline fill="none" stroke="#2f6b2f" points="544,-449 384,-449 "/>
<text text-anchor="start" x="389" y="-436" font-family="DejaVu Sans" font-size="10.00">&#45; attacks: DeimosAttackBase[]</text>
<polygon fill="none" stroke="#2f6b2f" points="383,-427 383,-469 545,-469 545,-427 383,-427"/>
</g>
<!-- DeimosAttackRegistry&#45;&gt;DeimosStateMachine -->
<g id="edge12" class="edge">
<title>DeimosAttackRegistry&#45;&gt;DeimosStateMachine</title>
<path fill="none" stroke="#2f6b2f" d="M464,-469.31C464,-497.9 464,-550.15 464,-582.86"/>
<polygon fill="#2f6b2f" stroke="#2f6b2f" points="464,-591.94 459.95,-582.94 464,-587.44 464,-582.94 464,-582.94 464,-582.94 464,-587.44 468.05,-582.94 464,-591.94 464,-591.94"/>
<text text-anchor="middle" x="489.5" y="-544.8" font-family="DejaVu Sans" font-size="9.00" fill="#2f6b2f"> «requires»</text>
</g>
<!-- DeimosAttackBase -->
<g id="node15" class="node">
<title>DeimosAttackBase</title>
<polygon fill="#fff1cc" stroke="transparent" points="368,-200 368,-333 560,-333 560,-200 368,-200"/>
<polyline fill="none" stroke="#8a6a12" points="369,-301.5 559,-301.5 "/>
<text text-anchor="start" x="438" y="-319.5" font-family="DejaVu Sans" font-style="italic" font-size="10.00">«abstract»</text>
<text text-anchor="start" x="411" y="-309.5" font-family="DejaVu Sans" font-weight="bold" font-size="10.00">DeimosAttackBase</text>
<text text-anchor="start" x="373" y="-289.5" font-family="DejaVu Sans" font-size="10.00">+ minRange, maxRange, cooldown,</text>
<text text-anchor="start" x="373" y="-278.5" font-family="DejaVu Sans" font-size="10.00">  attackTimeoutDuration: float</text>
<text text-anchor="start" x="373" y="-267.5" font-family="DejaVu Sans" font-size="10.00">+ event OnAttackEnded</text>
<polyline fill="none" stroke="#8a6a12" points="559,-260.5 369,-260.5 "/>
<text text-anchor="start" x="374" y="-248.5" font-family="DejaVu Sans" font-size="10.00">+ Execute()</text>
<text text-anchor="start" x="374" y="-238.5" font-family="DejaVu Sans" font-size="10.00"># </text>
<text text-anchor="start" x="386" y="-238.5" font-family="DejaVu Sans" font-style="italic" font-size="10.00">PerformAttack()</text>
<text text-anchor="start" x="374" y="-228.5" font-family="DejaVu Sans" font-size="10.00">+ OnHitboxOpen() / OnHitboxClose()</text>
<text text-anchor="start" x="374" y="-218.5" font-family="DejaVu Sans" font-size="10.00">+ OnAttackAnimEnd()</text>
<text text-anchor="start" x="374" y="-208.5" font-family="DejaVu Sans" font-size="10.00">+ CancelAttack()</text>
<polygon fill="none" stroke="#8a6a12" points="368,-200 368,-333 560,-333 560,-200 368,-200"/>
</g>
<!-- DeimosAttackBase&#45;&gt;DeimosAttackRegistry -->
<g id="edge15" class="edge">
<title>DeimosAttackBase&#45;&gt;DeimosAttackRegistry</title>
<path fill="none" stroke="#333333" d="M464,-333.07C464,-361.38 464,-393.16 464,-415.95"/>
<polygon fill="none" stroke="#333333" points="464,-416.18 467.6,-421.58 464,-426.98 460.4,-421.58 464,-416.18"/>
<text text-anchor="middle" x="457.24" y="-345.37" font-family="DejaVu Sans" font-size="9.00" fill="#333333">1..*</text>
</g>
<!-- DeimosAttacks -->
<g id="node16" class="node">
<title>DeimosAttacks</title>
<polygon fill="white" stroke="transparent" points="388.5,-51 388.5,-148 539.5,-148 539.5,-51 388.5,-51"/>
<text text-anchor="start" x="419" y="-135.5" font-family="DejaVu Sans" font-style="italic" font-size="10.00">6 concrete attacks</text>
<polyline fill="none" stroke="#333333" points="539,-127.5 390,-127.5 "/>
<text text-anchor="start" x="395" y="-114.5" font-family="DejaVu Sans" font-size="10.00">DropkickAttack</text>
<text text-anchor="start" x="395" y="-103.5" font-family="DejaVu Sans" font-size="10.00">FlyingKneeAttack</text>
<text text-anchor="start" x="395" y="-92.5" font-family="DejaVu Sans" font-size="10.00">MMAKickAttack</text>
<text text-anchor="start" x="395" y="-81.5" font-family="DejaVu Sans" font-size="10.00">JumpForwardAttack</text>
<text text-anchor="start" x="395" y="-70.5" font-family="DejaVu Sans" font-size="10.00">JumpBackwardAttack</text>
<text text-anchor="start" x="395" y="-59.5" font-family="DejaVu Sans" font-size="10.00">SuperhumanChokeLiftAttack</text>
<polygon fill="none" stroke="#333333" points="388.5,-51 388.5,-148 539.5,-148 539.5,-51 388.5,-51"/>
</g>
<!-- DeimosAttacks&#45;&gt;DeimosAttackBase -->
<g id="edge5" class="edge">
<title>DeimosAttacks&#45;&gt;DeimosAttackBase</title>
<path fill="none" stroke="#333333" d="M464,-148.22C464,-161.42 464,-176.07 464,-190.41"/>
<polygon fill="none" stroke="#333333" points="460.85,-190.78 464,-199.78 467.15,-190.78 460.85,-190.78"/>
</g>
<!-- Legend -->
<g id="node17" class="node">
<title>Legend</title>
<polygon fill="white" stroke="transparent" points="770.5,-374 770.5,-522 1019.5,-522 1019.5,-374 770.5,-374"/>
<text text-anchor="start" x="775" y="-511" font-family="DejaVu Sans" font-weight="bold" font-size="10.00">Legend</text>
<polygon fill="#dcebfa" stroke="transparent" points="772,-487 772,-504 811,-504 811,-487 772,-487"/>
<text text-anchor="start" x="789.5" y="-493" font-family="DejaVu Sans" font-size="10.00"> </text>
<text text-anchor="start" x="814" y="-493" font-family="DejaVu Sans" font-size="10.00">Interface</text>
<polygon fill="#fff1cc" stroke="transparent" points="772,-470 772,-487 811,-487 811,-470 772,-470"/>
<text text-anchor="start" x="789.5" y="-476" font-family="DejaVu Sans" font-size="10.00"> </text>
<text text-anchor="start" x="814" y="-476" font-family="DejaVu Sans" font-size="10.00">Abstract class</text>
<polygon fill="#e2f3e2" stroke="transparent" points="772,-453 772,-470 811,-470 811,-453 772,-453"/>
<text text-anchor="start" x="789.5" y="-459" font-family="DejaVu Sans" font-size="10.00"> </text>
<text text-anchor="start" x="814" y="-459" font-family="DejaVu Sans" font-size="10.00">Component on the boss GameObject</text>
<polygon fill="white" stroke="transparent" points="772,-436 772,-453 811,-453 811,-436 772,-436"/>
<text text-anchor="start" x="789.5" y="-442" font-family="DejaVu Sans" font-size="10.00"> </text>
<text text-anchor="start" x="814" y="-442" font-family="DejaVu Sans" font-size="10.00">Concrete class</text>
<text text-anchor="start" x="775" y="-425" font-family="DejaVu Sans" font-size="10.00">Solid + hollow triangle: extends</text>
<text text-anchor="start" x="775" y="-414" font-family="DejaVu Sans" font-size="10.00">Dashed + hollow triangle: implements</text>
<text text-anchor="start" x="775" y="-403" font-family="DejaVu Sans" font-size="10.00">Hollow diamond: holds (aggregation)</text>
<text text-anchor="start" x="775" y="-392" font-family="DejaVu Sans" font-size="10.00">Green arrow: [RequireComponent]</text>
<text text-anchor="start" x="775" y="-381" font-family="DejaVu Sans" font-size="10.00">All classes also extend MonoBehaviour (omitted)</text>
<polygon fill="none" stroke="#999999" points="770.5,-374 770.5,-522 1019.5,-522 1019.5,-374 770.5,-374"/>
</g>
<!-- Legend&#45;&gt;EnemyBrute -->
</g>
</svg>
