<?xml version="1.0" encoding="UTF-8" standalone="no"?>
<!DOCTYPE svg PUBLIC "-//W3C//DTD SVG 1.1//EN"
 "http://www.w3.org/Graphics/SVG/1.1/DTD/svg11.dtd">
<!-- Generated by graphviz version 2.43.0 (0)
 -->
<!-- Title: Events Pages: 1 -->
<svg width="1082pt" height="440pt"
 viewBox="0.00 0.00 1082.00 440.00" xmlns="http://www.w3.org/2000/svg" xmlns:xlink="http://www.w3.org/1999/xlink">
<g id="graph0" class="graph" transform="scale(1 1) rotate(0) translate(4 436)">
<title>Events</title>
<polygon fill="white" stroke="transparent" points="-4,4 -4,-436 1078,-436 1078,4 -4,4"/>
<g id="clust1" class="cluster">
<title>cluster_dda</title>
<path fill="white" stroke="#7a5aa6" stroke-dasharray="5,2" d="M814,-220C814,-220 1054,-220 1054,-220 1060,-220 1066,-226 1066,-232 1066,-232 1066,-412 1066,-412 1066,-418 1060,-424 1054,-424 1054,-424 814,-424 814,-424 808,-424 802,-418 802,-412 802,-412 802,-232 802,-232 802,-226 808,-220 814,-220"/>
<text text-anchor="start" x="810" y="-412.2" font-family="DejaVu Sans" font-weight="bold" font-size="11.00">DDA layer: measures and adapts</text>
</g>
<g id="clust2" class="cluster">
<title>cluster_game</title>
<path fill="white" stroke="#2f6b2f" stroke-dasharray="5,2" d="M823,-8C823,-8 1045,-8 1045,-8 1051,-8 1057,-14 1057,-20 1057,-20 1057,-200 1057,-200 1057,-206 1051,-212 1045,-212 1045,-212 823,-212 823,-212 817,-212 811,-206 811,-200 811,-200 811,-20 811,-20 811,-14 817,-8 823,-8"/>
<text text-anchor="start" x="819" y="-200.2" font-family="DejaVu Sans" font-weight="bold" font-size="11.00">Gameplay layer: reacts in the world</text>
</g>
<!-- Pub -->
<g id="node1" class="node">
<title>Pub</title>
<polygon fill="#dcebfa" stroke="transparent" points="0,-137 0,-235 186,-235 186,-137 0,-137"/>
<polyline fill="none" stroke="#2b5c8a" points="1,-198 185,-198 "/>
<text text-anchor="start" x="67.5" y="-219.2" font-family="DejaVu Sans" font-style="italic" font-size="11.00">Publisher</text>
<text text-anchor="start" x="35" y="-208.2" font-family="DejaVu Sans" font-weight="bold" font-size="11.00">LinkedListPuzzleUI</text>
<text text-anchor="start" x="7" y="-183.2" font-family="DejaVu Sans" font-size="11.00">Raises the event when the</text>
<text text-anchor="start" x="7" y="-171.2" font-family="DejaVu Sans" font-size="11.00">player submits a correct solve.</text>
<text text-anchor="start" x="7" y="-159.2" font-family="DejaVu Sans" font-size="11.00">Does not know who, if anyone,</text>
<text text-anchor="start" x="7" y="-147.2" font-family="DejaVu Sans" font-size="11.00">is listening.</text>
<polygon fill="none" stroke="#2b5c8a" points="0,-137 0,-235 186,-235 186,-137 0,-137"/>
</g>
<!-- Evt -->
<g id="node2" class="node">
<title>Evt</title>
<polygon fill="#fff1cc" stroke="transparent" points="506,-162.5 506,-209.5 676,-209.5 676,-162.5 506,-162.5"/>
<text text-anchor="start" x="547.5" y="-194.2" font-family="DejaVu Sans" font-style="italic" font-size="11.00">static C# event</text>
<text text-anchor="start" x="530.5" y="-183.2" font-family="DejaVu Sans" font-weight="bold" font-size="11.00">OnLinkedListSolved</text>
<text text-anchor="start" x="513" y="-172.2" font-family="DejaVu Sans" font-size="11.00">Action&lt;int wrongAttempts&gt;</text>
<polygon fill="none" stroke="#8a6a12" points="506,-162.5 506,-209.5 676,-209.5 676,-162.5 506,-162.5"/>
</g>
<!-- Pub&#45;&gt;Evt -->
<g id="edge1" class="edge">
<title>Pub&#45;&gt;Evt</title>
<path fill="none" stroke="#333333" stroke-width="1.3" d="M186.13,-186C274.52,-186 407.34,-186 496.26,-186"/>
<polygon fill="#333333" stroke="#333333" stroke-width="1.3" points="496.3,-189.33 505.8,-186 496.3,-182.68 496.3,-189.33"/>
<text text-anchor="start" x="208" y="-198.8" font-family="DejaVu Sans" font-size="9.00"> raises</text>
<text text-anchor="middle" x="299.5" y="-188.8" font-family="DejaVu Sans" font-size="9.00"> OnLinkedListSolved?.Invoke(_attempts)</text>
</g>
<!-- Tracker -->
<g id="node3" class="node">
<title>Tracker</title>
<polygon fill="#eadcf8" stroke="transparent" points="814,-328 814,-392 1054,-392 1054,-328 814,-328"/>
<polyline fill="none" stroke="#5b3f8a" points="815,-365 1053,-365 "/>
<text text-anchor="start" x="868.5" y="-376.2" font-family="DejaVu Sans" font-weight="bold" font-size="11.00">PlayerMetricsTracker</text>
<text text-anchor="start" x="821" y="-350.2" font-family="DejaVu Sans" font-size="11.00">Records wrong attempts and solve time,</text>
<text text-anchor="start" x="821" y="-338.2" font-family="DejaVu Sans" font-size="11.00">updates rolling averages and BKT</text>
<polygon fill="none" stroke="#5b3f8a" points="814,-328 814,-392 1054,-392 1054,-328 814,-328"/>
</g>
<!-- Evt&#45;&gt;Tracker -->
<g id="edge2" class="edge">
<title>Evt&#45;&gt;Tracker</title>
<path fill="none" stroke="#333333" stroke-width="1.3" d="M626.54,-209.51C667.25,-236.56 737.55,-281.2 802,-312 810.86,-316.23 820.2,-320.33 829.64,-324.23"/>
<polygon fill="#333333" stroke="#333333" stroke-width="1.3" points="828.67,-327.42 838.72,-327.9 831.16,-321.26 828.67,-327.42"/>
</g>
<!-- Puzzle -->
<g id="node4" class="node">
<title>Puzzle</title>
<polygon fill="#eadcf8" stroke="transparent" points="835,-232 835,-296 1033,-296 1033,-232 835,-232"/>
<polyline fill="none" stroke="#5b3f8a" points="836,-269 1032,-269 "/>
<text text-anchor="start" x="869.5" y="-280.2" font-family="DejaVu Sans" font-weight="bold" font-size="11.00">PuzzleDDAController</text>
<text text-anchor="start" x="842" y="-254.2" font-family="DejaVu Sans" font-size="11.00">Re&#45;evaluates the puzzle difficulty</text>
<text text-anchor="start" x="842" y="-242.2" font-family="DejaVu Sans" font-size="11.00">score and tier on the next frame</text>
<polygon fill="none" stroke="#5b3f8a" points="835,-232 835,-296 1033,-296 1033,-232 835,-232"/>
</g>
<!-- Evt&#45;&gt;Puzzle -->
<g id="edge3" class="edge">
<title>Evt&#45;&gt;Puzzle</title>
<path fill="none" stroke="#333333" stroke-width="1.3" d="M676.29,-205.28C721.32,-215.58 777.22,-228.37 825.36,-239.38"/>
<polygon fill="#333333" stroke="#333333" stroke-width="1.3" points="824.87,-242.68 834.87,-241.55 826.35,-236.2 824.87,-242.68"/>
</g>
<!-- Door -->
<g id="node5" class="node">
<title>Door</title>
<polygon fill="#e2f3e2" stroke="transparent" points="853,-116 853,-180 1015,-180 1015,-116 853,-116"/>
<polyline fill="none" stroke="#2f6b2f" points="854,-153 1014,-153 "/>
<text text-anchor="start" x="861" y="-164.2" font-family="DejaVu Sans" font-weight="bold" font-size="11.00">LinkedListEventHandler</text>
<text text-anchor="start" x="860" y="-138.2" font-family="DejaVu Sans" font-size="11.00">Unlocks the assigned door</text>
<text text-anchor="start" x="860" y="-126.2" font-family="DejaVu Sans" font-size="11.00">(DoorController.Unlock)</text>
<polygon fill="none" stroke="#2f6b2f" points="853,-116 853,-180 1015,-180 1015,-116 853,-116"/>
</g>
<!-- Evt&#45;&gt;Door -->
<g id="edge4" class="edge">
<title>Evt&#45;&gt;Door</title>
<path fill="none" stroke="#333333" stroke-width="1.3" d="M676.29,-176.61C727.07,-170.95 791.7,-163.75 843.4,-157.98"/>
<polygon fill="#333333" stroke="#333333" stroke-width="1.3" points="843.83,-161.28 852.9,-156.93 843.09,-154.67 843.83,-161.28"/>
</g>
<!-- Bridge -->
<g id="node6" class="node">
<title>Bridge</title>
<polygon fill="#e2f3e2" stroke="transparent" points="823,-20 823,-84 1045,-84 1045,-20 823,-20"/>
<polyline fill="none" stroke="#2f6b2f" points="824,-57 1044,-57 "/>
<text text-anchor="start" x="875.5" y="-68.2" font-family="DejaVu Sans" font-weight="bold" font-size="11.00">EnemyEventBridge</text>
<text text-anchor="start" x="830" y="-42.2" font-family="DejaVu Sans" font-size="11.00">Waits activationDelay, then activates</text>
<text text-anchor="start" x="830" y="-30.2" font-family="DejaVu Sans" font-size="11.00">the Classroom enemy (door break&#45;in)</text>
<polygon fill="none" stroke="#2f6b2f" points="823,-20 823,-84 1045,-84 1045,-20 823,-20"/>
</g>
<!-- Evt&#45;&gt;Bridge -->
<g id="edge5" class="edge">
<title>Evt&#45;&gt;Bridge</title>
<path fill="none" stroke="#333333" stroke-width="1.3" d="M647.92,-162.43C690.1,-144.82 749.47,-120.37 802,-100 812.69,-95.85 823.91,-91.6 835.09,-87.42"/>
<polygon fill="#333333" stroke="#333333" stroke-width="1.3" points="836.3,-90.52 844.04,-84.09 833.98,-84.28 836.3,-90.52"/>
</g>
<!-- Note -->
<g id="node7" class="node">
<title>Note</title>
<polygon fill="white" stroke="transparent" points="413,-24 413,-80 769,-80 769,-24 413,-24"/>
<text text-anchor="start" x="419" y="-66.2" font-family="DejaVu Sans" font-size="11.00">Each subscriber registers with </text>
<text text-anchor="start" x="590" y="-66.2" font-family="DejaVu Sans" font-weight="bold" font-size="11.00">+=</text>
<text text-anchor="start" x="609" y="-66.2" font-family="DejaVu Sans" font-size="11.00"> in OnEnable and removes</text>
<text text-anchor="start" x="419" y="-55.2" font-family="DejaVu Sans" font-size="11.00">itself with </text>
<text text-anchor="start" x="477" y="-55.2" font-family="DejaVu Sans" font-weight="bold" font-size="11.00">&#45;=</text>
<text text-anchor="start" x="491" y="-55.2" font-family="DejaVu Sans" font-size="11.00"> in OnDisable. The four react independently, so a</text>
<text text-anchor="start" x="419" y="-44.2" font-family="DejaVu Sans" font-size="11.00">new listener can be added without editing the puzzle.</text>
<text text-anchor="start" x="419" y="-33.2" font-family="DejaVu Sans" font-size="11.00">Direct calls such as NotifyLinkedListStarted() are not shown.</text>
<polygon fill="none" stroke="#999999" points="413,-24 413,-80 769,-80 769,-24 413,-24"/>
</g>
<!-- Note&#45;&gt;Bridge -->
</g>
</svg>
